<?xml version="1.0" ?>
<!-- Uploaded to: SVG Repo, www.svgrepo.com, Generator: SVG Repo Mixer Tools -->
<svg width="800px" height="800px" viewBox="0 0 20 20" xmlns="http://www.w3.org/2000/svg">
<defs>
<style>.cls-1{fill:none;}.cls-2{fill:#1b5cf3;}.cls-3{fill:#f92115;}.cls-4{fill:#190d15;}</style>
</defs>
<g data-name="Layer 2" id="Layer_2">
<g data-name="Layer 1" id="Layer_1-2">
<rect class="cls-1" height="20" width="20"/>
<rect class="cls-2" height="13" rx="0.89" width="16" x="2" y="2.02"/>
<path class="cls-3" d="M14.46,14.05h0a5.81,5.81,0,0,0-.43-.43h0c-.15-.13-.3-.26-.45-.37l0,0a4.53,4.53,0,0,0-.46-.3l-.06,0a4,4,0,0,0-.46-.24l-.1-.05c-.15-.07-.29-.12-.45-.18l-.13-.05-.44-.12-.17,0-.45-.08-.17,0c-.21,0-.42,0-.64,0s-.43,0-.64,0l-.17,0-.45.08-.17,0-.44.12L8,12.4l-.45.18-.1.05a4,4,0,0,0-.46.24l-.06,0a4.53,4.53,0,0,0-.46.3l0,0c-.15.11-.3.24-.45.37H6a5.94,5.94,0,0,0-2,4.43H16A6,6,0,0,0,14.46,14.05Z"/>
<path class="cls-4" d="M13.57,13.24l0,0a4.53,4.53,0,0,0-.46-.3l-.06,0a4,4,0,0,0-.46-.24l-.1-.05c-.15-.07-.29-.12-.45-.18l-.13-.05-.44-.12-.17,0-.45-.08-.17,0c-.21,0-.42,0-.64,0s-.43,0-.64,0l-.17,0-.45.08-.17,0-.44.12L8,12.4l-.45.18-.1.05a4,4,0,0,0-.46.24l-.06,0a4.53,4.53,0,0,0-.46.3l0,0c-.15.11-.3.24-.45.37H6A5.73,5.73,0,0,0,4.83,15H15.16a6.32,6.32,0,0,0-.7-1,5.81,5.81,0,0,0-.43-.43h0C13.87,13.48,13.72,13.35,13.57,13.24Z"/>
</g>
</g>
</svg>